<mxfile host="app.diagrams.net" agent="Mozilla/5.0 (Windows NT 10.0; Win64; x64) AppleWebKit/537.36 (KHTML, like Gecko) Chrome/134.0.0.0 Safari/537.36 Edg/134.0.0.0" version="26.0.16">
  <diagram id="R2lEEEUBdFMjLlhIrx00" name="Page-1">
    <mxGraphModel dx="748" dy="690" grid="1" gridSize="10" guides="1" tooltips="1" connect="1" arrows="1" fold="1" page="1" pageScale="1" pageWidth="850" pageHeight="1100" math="0" shadow="0" extFonts="Permanent Marker^https://fonts.googleapis.com/css?family=Permanent+Marker">
      <root>
        <mxCell id="0" />
        <mxCell id="1" parent="0" />
        <mxCell id="2vDDrUa2nhz0SJgFM6xi-5" value="Hero" style="swimlane;childLayout=stackLayout;horizontal=1;startSize=50;horizontalStack=0;rounded=1;fontSize=14;fontStyle=0;strokeWidth=2;resizeParent=0;resizeLast=1;shadow=0;dashed=0;align=center;arcSize=4;whiteSpace=wrap;html=1;labelBackgroundColor=none;fillColor=#FAE5C7;strokeColor=#0F8B8D;fontColor=#143642;" parent="1" vertex="1">
          <mxGeometry x="60" y="80" width="130" height="100" as="geometry" />
        </mxCell>
        <mxCell id="2vDDrUa2nhz0SJgFM6xi-6" value="+ name&lt;div&gt;+ gender&lt;/div&gt;" style="align=left;strokeColor=none;fillColor=none;spacingLeft=4;spacingRight=4;fontSize=12;verticalAlign=top;resizable=0;rotatable=0;part=1;html=1;whiteSpace=wrap;labelBackgroundColor=none;fontColor=#143642;" parent="2vDDrUa2nhz0SJgFM6xi-5" vertex="1">
          <mxGeometry y="50" width="130" height="50" as="geometry" />
        </mxCell>
        <mxCell id="2vDDrUa2nhz0SJgFM6xi-7" value="Animal" style="swimlane;childLayout=stackLayout;horizontal=1;startSize=50;horizontalStack=0;rounded=1;fontSize=14;fontStyle=0;strokeWidth=2;resizeParent=0;resizeLast=1;shadow=0;dashed=0;align=center;arcSize=4;whiteSpace=wrap;html=1;labelBackgroundColor=none;fillColor=#FAE5C7;strokeColor=#0F8B8D;fontColor=#143642;" parent="1" vertex="1">
          <mxGeometry x="240" y="80" width="130" height="100" as="geometry" />
        </mxCell>
        <mxCell id="2vDDrUa2nhz0SJgFM6xi-8" value="+ name&lt;div&gt;+ type&lt;/div&gt;" style="align=left;strokeColor=none;fillColor=none;spacingLeft=4;spacingRight=4;fontSize=12;verticalAlign=top;resizable=0;rotatable=0;part=1;html=1;whiteSpace=wrap;labelBackgroundColor=none;fontColor=#143642;" parent="2vDDrUa2nhz0SJgFM6xi-7" vertex="1">
          <mxGeometry y="50" width="130" height="50" as="geometry" />
        </mxCell>
        <mxCell id="2vDDrUa2nhz0SJgFM6xi-9" value="Item" style="swimlane;childLayout=stackLayout;horizontal=1;startSize=50;horizontalStack=0;rounded=1;fontSize=14;fontStyle=0;strokeWidth=2;resizeParent=0;resizeLast=1;shadow=0;dashed=0;align=center;arcSize=4;whiteSpace=wrap;html=1;labelBackgroundColor=none;fillColor=#FAE5C7;strokeColor=#0F8B8D;fontColor=#143642;" parent="1" vertex="1">
          <mxGeometry x="630" y="120" width="130" height="100" as="geometry" />
        </mxCell>
        <mxCell id="2vDDrUa2nhz0SJgFM6xi-10" value="+ name&lt;div&gt;+ description&lt;/div&gt;" style="align=left;strokeColor=none;fillColor=none;spacingLeft=4;spacingRight=4;fontSize=12;verticalAlign=top;resizable=0;rotatable=0;part=1;html=1;whiteSpace=wrap;labelBackgroundColor=none;fontColor=#143642;" parent="2vDDrUa2nhz0SJgFM6xi-9" vertex="1">
          <mxGeometry y="50" width="130" height="50" as="geometry" />
        </mxCell>
        <mxCell id="2vDDrUa2nhz0SJgFM6xi-11" value="Place" style="swimlane;childLayout=stackLayout;horizontal=1;startSize=50;horizontalStack=0;rounded=1;fontSize=14;fontStyle=0;strokeWidth=2;resizeParent=0;resizeLast=1;shadow=0;dashed=0;align=center;arcSize=4;whiteSpace=wrap;html=1;labelBackgroundColor=none;fillColor=#FAE5C7;strokeColor=#0F8B8D;fontColor=#143642;" parent="1" vertex="1">
          <mxGeometry x="670" y="460" width="130" height="100" as="geometry" />
        </mxCell>
        <mxCell id="2vDDrUa2nhz0SJgFM6xi-12" value="+ name&lt;div&gt;+ part of&lt;span style=&quot;color: rgba(0, 0, 0, 0); font-family: monospace; font-size: 0px; text-wrap-mode: nowrap; background-color: transparent;&quot;&gt;%3CmxGraphModel%3E%3Croot%3E%3CmxCell%20id%3D%220%22%2F%3E%3CmxCell%20id%3D%221%22%20parent%3D%220%22%2F%3E%3CmxCell%20id%3D%222%22%20value%3D%22Hero%22%20style%3D%22swimlane%3BchildLayout%3DstackLayout%3Bhorizontal%3D1%3BstartSize%3D50%3BhorizontalStack%3D0%3Brounded%3D1%3BfontSize%3D14%3BfontStyle%3D0%3BstrokeWidth%3D2%3BresizeParent%3D0%3BresizeLast%3D1%3Bshadow%3D0%3Bdashed%3D0%3Balign%3Dcenter%3BarcSize%3D4%3BwhiteSpace%3Dwrap%3Bhtml%3D1%3B%22%20vertex%3D%221%22%20parent%3D%221%22%3E%3CmxGeometry%20x%3D%22160%22%20y%3D%22130%22%20width%3D%22130%22%20height%3D%22100%22%20as%3D%22geometry%22%2F%3E%3C%2FmxCell%3E%3CmxCell%20id%3D%223%22%20value%3D%22%2B%20name%26lt%3Bdiv%26gt%3B%2B%20gender%26lt%3B%2Fdiv%26gt%3B%22%20style%3D%22align%3Dleft%3BstrokeColor%3Dnone%3BfillColor%3Dnone%3BspacingLeft%3D4%3BspacingRight%3D4%3BfontSize%3D12%3BverticalAlign%3Dtop%3Bresizable%3D0%3Brotatable%3D0%3Bpart%3D1%3Bhtml%3D1%3BwhiteSpace%3Dwrap%3B%22%20vertex%3D%221%22%20parent%3D%222%22%3E%3CmxGeometry%20y%3D%2250%22%20width%3D%22130%22%20height%3D%2250%22%20as%3D%22geometry%22%2F%3E%3C%2FmxCell%3E%3C%2Froot%3E%3C%2FmxGraphModel%3E&lt;/span&gt;&lt;/div&gt;" style="align=left;strokeColor=none;fillColor=none;spacingLeft=4;spacingRight=4;fontSize=12;verticalAlign=top;resizable=0;rotatable=0;part=1;html=1;whiteSpace=wrap;labelBackgroundColor=none;fontColor=#143642;" parent="2vDDrUa2nhz0SJgFM6xi-11" vertex="1">
          <mxGeometry y="50" width="130" height="50" as="geometry" />
        </mxCell>
        <mxCell id="2vDDrUa2nhz0SJgFM6xi-13" value="Action" style="swimlane;childLayout=stackLayout;horizontal=1;startSize=50;horizontalStack=0;rounded=1;fontSize=14;fontStyle=0;strokeWidth=2;resizeParent=0;resizeLast=1;shadow=0;dashed=0;align=center;arcSize=4;whiteSpace=wrap;html=1;labelBackgroundColor=none;fillColor=#FAE5C7;strokeColor=#0F8B8D;fontColor=#143642;" parent="1" vertex="1">
          <mxGeometry x="250" y="290" width="130" height="100" as="geometry" />
        </mxCell>
        <mxCell id="2vDDrUa2nhz0SJgFM6xi-14" value="&lt;div&gt;+ actor&lt;/div&gt;&lt;div&gt;+ name&lt;/div&gt;" style="align=left;strokeColor=none;fillColor=none;spacingLeft=4;spacingRight=4;fontSize=12;verticalAlign=top;resizable=0;rotatable=0;part=1;html=1;whiteSpace=wrap;labelBackgroundColor=none;fontColor=#143642;" parent="2vDDrUa2nhz0SJgFM6xi-13" vertex="1">
          <mxGeometry y="50" width="130" height="50" as="geometry" />
        </mxCell>
        <mxCell id="2vDDrUa2nhz0SJgFM6xi-15" value="Attention" style="swimlane;childLayout=stackLayout;horizontal=1;startSize=50;horizontalStack=0;rounded=1;fontSize=14;fontStyle=0;strokeWidth=2;resizeParent=0;resizeLast=1;shadow=0;dashed=0;align=center;arcSize=4;whiteSpace=wrap;html=1;labelBackgroundColor=none;fillColor=#FAE5C7;strokeColor=#0F8B8D;fontColor=#143642;" parent="1" vertex="1">
          <mxGeometry x="440" y="120" width="130" height="110" as="geometry" />
        </mxCell>
        <mxCell id="2vDDrUa2nhz0SJgFM6xi-16" value="+ hero&lt;div&gt;+ action&lt;br&gt;&lt;div&gt;+ target&lt;/div&gt;&lt;/div&gt;" style="align=left;strokeColor=none;fillColor=none;spacingLeft=4;spacingRight=4;fontSize=12;verticalAlign=top;resizable=0;rotatable=0;part=1;html=1;whiteSpace=wrap;labelBackgroundColor=none;fontColor=#143642;" parent="2vDDrUa2nhz0SJgFM6xi-15" vertex="1">
          <mxGeometry y="50" width="130" height="60" as="geometry" />
        </mxCell>
        <mxCell id="2vDDrUa2nhz0SJgFM6xi-19" value="Steps queue" style="swimlane;childLayout=stackLayout;horizontal=1;startSize=50;horizontalStack=0;rounded=1;fontSize=14;fontStyle=0;strokeWidth=2;resizeParent=0;resizeLast=1;shadow=0;dashed=0;align=center;arcSize=4;whiteSpace=wrap;html=1;labelBackgroundColor=none;fillColor=#FAE5C7;strokeColor=#0F8B8D;fontColor=#143642;" parent="1" vertex="1">
          <mxGeometry x="30" y="290" width="130" height="100" as="geometry" />
        </mxCell>
        <mxCell id="2vDDrUa2nhz0SJgFM6xi-20" value="+ action 1&lt;div&gt;+ action 2&lt;/div&gt;&lt;div&gt;&lt;br&gt;&lt;/div&gt;" style="align=left;strokeColor=none;fillColor=none;spacingLeft=4;spacingRight=4;fontSize=12;verticalAlign=top;resizable=0;rotatable=0;part=1;html=1;whiteSpace=wrap;labelBackgroundColor=none;fontColor=#143642;" parent="2vDDrUa2nhz0SJgFM6xi-19" vertex="1">
          <mxGeometry y="50" width="130" height="50" as="geometry" />
        </mxCell>
        <mxCell id="2vDDrUa2nhz0SJgFM6xi-21" value="Scene" style="swimlane;childLayout=stackLayout;horizontal=1;startSize=50;horizontalStack=0;rounded=1;fontSize=14;fontStyle=0;strokeWidth=2;resizeParent=0;resizeLast=1;shadow=0;dashed=0;align=center;arcSize=4;whiteSpace=wrap;html=1;labelBackgroundColor=none;fillColor=#FAE5C7;strokeColor=#0F8B8D;fontColor=#143642;" parent="1" vertex="1">
          <mxGeometry x="470" y="460" width="130" height="100" as="geometry" />
        </mxCell>
        <mxCell id="2vDDrUa2nhz0SJgFM6xi-22" value="+ action&lt;div&gt;+ place&lt;/div&gt;" style="align=left;strokeColor=none;fillColor=none;spacingLeft=4;spacingRight=4;fontSize=12;verticalAlign=top;resizable=0;rotatable=0;part=1;html=1;whiteSpace=wrap;labelBackgroundColor=none;fontColor=#143642;" parent="2vDDrUa2nhz0SJgFM6xi-21" vertex="1">
          <mxGeometry y="50" width="130" height="50" as="geometry" />
        </mxCell>
        <mxCell id="2vDDrUa2nhz0SJgFM6xi-23" value="Feelings" style="swimlane;childLayout=stackLayout;horizontal=1;startSize=50;horizontalStack=0;rounded=1;fontSize=14;fontStyle=0;strokeWidth=2;resizeParent=0;resizeLast=1;shadow=0;dashed=0;align=center;arcSize=4;whiteSpace=wrap;html=1;labelBackgroundColor=none;fillColor=#FAE5C7;strokeColor=#0F8B8D;fontColor=#143642;" parent="1" vertex="1">
          <mxGeometry x="250" y="490" width="130" height="100" as="geometry" />
        </mxCell>
        <mxCell id="2vDDrUa2nhz0SJgFM6xi-24" value="+ action&lt;div&gt;+ emotion&lt;/div&gt;" style="align=left;strokeColor=none;fillColor=none;spacingLeft=4;spacingRight=4;fontSize=12;verticalAlign=top;resizable=0;rotatable=0;part=1;html=1;whiteSpace=wrap;labelBackgroundColor=none;fontColor=#143642;" parent="2vDDrUa2nhz0SJgFM6xi-23" vertex="1">
          <mxGeometry y="50" width="130" height="50" as="geometry" />
        </mxCell>
        <mxCell id="2vDDrUa2nhz0SJgFM6xi-25" value="Emotion" style="swimlane;childLayout=stackLayout;horizontal=1;startSize=50;horizontalStack=0;rounded=1;fontSize=14;fontStyle=0;strokeWidth=2;resizeParent=0;resizeLast=1;shadow=0;dashed=0;align=center;arcSize=4;whiteSpace=wrap;html=1;labelBackgroundColor=none;fillColor=#FAE5C7;strokeColor=#0F8B8D;fontColor=#143642;" parent="1" vertex="1">
          <mxGeometry x="30" y="490" width="130" height="100" as="geometry" />
        </mxCell>
        <mxCell id="2vDDrUa2nhz0SJgFM6xi-26" value="+ name&lt;div&gt;+ type&lt;/div&gt;" style="align=left;strokeColor=none;fillColor=none;spacingLeft=4;spacingRight=4;fontSize=12;verticalAlign=top;resizable=0;rotatable=0;part=1;html=1;whiteSpace=wrap;labelBackgroundColor=none;fontColor=#143642;" parent="2vDDrUa2nhz0SJgFM6xi-25" vertex="1">
          <mxGeometry y="50" width="130" height="50" as="geometry" />
        </mxCell>
        <mxCell id="2vDDrUa2nhz0SJgFM6xi-35" value="" style="edgeStyle=orthogonalEdgeStyle;fontSize=12;html=1;endArrow=ERzeroToMany;startArrow=ERmandOne;rounded=0;exitX=0;exitY=0.25;exitDx=0;exitDy=0;entryX=1;entryY=0.75;entryDx=0;entryDy=0;labelBackgroundColor=none;strokeColor=#A8201A;fontColor=default;" parent="1" source="2vDDrUa2nhz0SJgFM6xi-10" target="2vDDrUa2nhz0SJgFM6xi-16" edge="1">
          <mxGeometry width="100" height="100" relative="1" as="geometry">
            <mxPoint x="145" y="200" as="sourcePoint" />
            <mxPoint x="355" y="310" as="targetPoint" />
          </mxGeometry>
        </mxCell>
        <mxCell id="2vDDrUa2nhz0SJgFM6xi-38" value="" style="edgeStyle=orthogonalEdgeStyle;fontSize=12;html=1;endArrow=ERzeroToMany;startArrow=ERmandOne;rounded=0;entryX=0;entryY=0.25;entryDx=0;entryDy=0;exitX=0;exitY=0.25;exitDx=0;exitDy=0;labelBackgroundColor=none;strokeColor=#A8201A;fontColor=default;" parent="1" source="2vDDrUa2nhz0SJgFM6xi-8" target="2vDDrUa2nhz0SJgFM6xi-16" edge="1">
          <mxGeometry width="100" height="100" relative="1" as="geometry">
            <mxPoint x="290" y="300" as="sourcePoint" />
            <mxPoint x="390" y="200" as="targetPoint" />
            <Array as="points">
              <mxPoint x="220" y="143" />
              <mxPoint x="220" y="200" />
              <mxPoint x="400" y="200" />
              <mxPoint x="400" y="185" />
            </Array>
          </mxGeometry>
        </mxCell>
        <mxCell id="2vDDrUa2nhz0SJgFM6xi-46" value="" style="edgeStyle=orthogonalEdgeStyle;fontSize=12;html=1;endArrow=ERzeroToMany;startArrow=ERmandOne;rounded=0;exitX=0;exitY=0.25;exitDx=0;exitDy=0;entryX=-0.006;entryY=0.07;entryDx=0;entryDy=0;labelBackgroundColor=none;strokeColor=#A8201A;fontColor=default;entryPerimeter=0;" parent="1" source="2vDDrUa2nhz0SJgFM6xi-8" target="2vDDrUa2nhz0SJgFM6xi-14" edge="1">
          <mxGeometry width="100" height="100" relative="1" as="geometry">
            <mxPoint x="250" y="153" as="sourcePoint" />
            <mxPoint x="200" y="400" as="targetPoint" />
            <Array as="points">
              <mxPoint x="220" y="143" />
              <mxPoint x="220" y="344" />
              <mxPoint x="249" y="344" />
            </Array>
          </mxGeometry>
        </mxCell>
        <mxCell id="2vDDrUa2nhz0SJgFM6xi-48" value="" style="edgeStyle=orthogonalEdgeStyle;fontSize=12;html=1;endArrow=ERzeroToMany;startArrow=ERmandOne;rounded=0;exitX=0;exitY=0.25;exitDx=0;exitDy=0;startFill=0;labelBackgroundColor=none;strokeColor=#A8201A;fontColor=default;entryX=-0.003;entryY=0.312;entryDx=0;entryDy=0;entryPerimeter=0;endFill=0;" parent="1" source="2vDDrUa2nhz0SJgFM6xi-6" edge="1" target="2vDDrUa2nhz0SJgFM6xi-14">
          <mxGeometry width="100" height="100" relative="1" as="geometry">
            <mxPoint x="250" y="153" as="sourcePoint" />
            <mxPoint x="200" y="280" as="targetPoint" />
            <Array as="points">
              <mxPoint x="40" y="143" />
              <mxPoint x="40" y="240" />
              <mxPoint x="200" y="240" />
              <mxPoint x="200" y="356" />
            </Array>
          </mxGeometry>
        </mxCell>
        <mxCell id="2vDDrUa2nhz0SJgFM6xi-51" value="" style="edgeStyle=orthogonalEdgeStyle;fontSize=12;html=1;endArrow=ERzeroToMany;startArrow=ERzeroToMany;rounded=0;exitX=0;exitY=0.25;exitDx=0;exitDy=0;startFill=0;labelBackgroundColor=none;strokeColor=#A8201A;fontColor=default;entryX=0.709;entryY=0.976;entryDx=0;entryDy=0;entryPerimeter=0;" parent="1" source="2vDDrUa2nhz0SJgFM6xi-22" edge="1" target="2vDDrUa2nhz0SJgFM6xi-14">
          <mxGeometry width="100" height="100" relative="1" as="geometry">
            <mxPoint x="370" y="478" as="sourcePoint" />
            <mxPoint x="250" y="370" as="targetPoint" />
            <Array as="points">
              <mxPoint x="450" y="523" />
              <mxPoint x="450" y="430" />
              <mxPoint x="342" y="430" />
              <mxPoint x="342" y="400" />
              <mxPoint x="342" y="400" />
            </Array>
          </mxGeometry>
        </mxCell>
        <mxCell id="2vDDrUa2nhz0SJgFM6xi-52" value="" style="edgeStyle=orthogonalEdgeStyle;fontSize=12;html=1;endArrow=ERmandOne;startArrow=ERzeroToMany;rounded=0;exitX=1;exitY=0.568;exitDx=0;exitDy=0;exitPerimeter=0;entryX=0;entryY=0.25;entryDx=0;entryDy=0;endFill=0;startFill=0;labelBackgroundColor=none;strokeColor=#A8201A;fontColor=default;" parent="1" source="2vDDrUa2nhz0SJgFM6xi-22" target="2vDDrUa2nhz0SJgFM6xi-12" edge="1">
          <mxGeometry width="100" height="100" relative="1" as="geometry">
            <mxPoint x="710" y="380" as="sourcePoint" />
            <mxPoint x="660" y="530" as="targetPoint" />
            <Array as="points">
              <mxPoint x="640" y="538" />
              <mxPoint x="640" y="523" />
              <mxPoint x="660" y="523" />
            </Array>
          </mxGeometry>
        </mxCell>
        <mxCell id="2vDDrUa2nhz0SJgFM6xi-53" value="" style="edgeStyle=orthogonalEdgeStyle;fontSize=12;html=1;endArrow=ERzeroToMany;startArrow=ERzeroToMany;rounded=0;exitX=0;exitY=0.2;exitDx=0;exitDy=0;exitPerimeter=0;startFill=0;labelBackgroundColor=none;strokeColor=#A8201A;fontColor=default;entryX=0.353;entryY=1.028;entryDx=0;entryDy=0;entryPerimeter=0;" parent="1" source="2vDDrUa2nhz0SJgFM6xi-24" edge="1" target="2vDDrUa2nhz0SJgFM6xi-14">
          <mxGeometry width="100" height="100" relative="1" as="geometry">
            <mxPoint x="240" y="550" as="sourcePoint" />
            <mxPoint x="250" y="370" as="targetPoint" />
            <Array as="points">
              <mxPoint x="220" y="550" />
              <mxPoint x="220" y="420" />
              <mxPoint x="296" y="420" />
            </Array>
          </mxGeometry>
        </mxCell>
        <mxCell id="2vDDrUa2nhz0SJgFM6xi-58" value="" style="edgeStyle=orthogonalEdgeStyle;fontSize=12;html=1;endArrow=ERmandOne;startArrow=ERmandOne;rounded=0;entryX=0;entryY=0.5;entryDx=0;entryDy=0;endFill=0;labelBackgroundColor=none;strokeColor=#A8201A;fontColor=default;" parent="1" target="2vDDrUa2nhz0SJgFM6xi-16" edge="1">
          <mxGeometry width="100" height="100" relative="1" as="geometry">
            <mxPoint x="380" y="350" as="sourcePoint" />
            <mxPoint x="420" y="200" as="targetPoint" />
            <Array as="points">
              <mxPoint x="420" y="350" />
              <mxPoint x="420" y="200" />
            </Array>
          </mxGeometry>
        </mxCell>
        <mxCell id="2vDDrUa2nhz0SJgFM6xi-60" value="" style="edgeStyle=orthogonalEdgeStyle;fontSize=12;html=1;endArrow=ERzeroToMany;startArrow=ERmandOne;rounded=0;exitX=1.009;exitY=0.304;exitDx=0;exitDy=0;exitPerimeter=0;entryX=0;entryY=0.25;entryDx=0;entryDy=0;labelBackgroundColor=none;strokeColor=#A8201A;fontColor=default;" parent="1" source="2vDDrUa2nhz0SJgFM6xi-26" edge="1">
          <mxGeometry width="100" height="100" relative="1" as="geometry">
            <mxPoint x="180" y="585" as="sourcePoint" />
            <mxPoint x="250" y="570" as="targetPoint" />
            <Array as="points">
              <mxPoint x="190" y="555" />
              <mxPoint x="190" y="570" />
            </Array>
          </mxGeometry>
        </mxCell>
        <mxCell id="2vDDrUa2nhz0SJgFM6xi-65" value="" style="edgeStyle=orthogonalEdgeStyle;fontSize=12;html=1;endArrow=ERzeroToMany;startArrow=ERzeroToMany;rounded=0;exitX=1;exitY=0.25;exitDx=0;exitDy=0;startFill=0;labelBackgroundColor=none;strokeColor=#A8201A;fontColor=default;" parent="1" source="2vDDrUa2nhz0SJgFM6xi-20" edge="1">
          <mxGeometry width="100" height="100" relative="1" as="geometry">
            <mxPoint x="162" y="370" as="sourcePoint" />
            <mxPoint x="250" y="370" as="targetPoint" />
            <Array as="points">
              <mxPoint x="190" y="353" />
              <mxPoint x="190" y="370" />
            </Array>
          </mxGeometry>
        </mxCell>
        <mxCell id="3" value="" style="edgeStyle=orthogonalEdgeStyle;fontSize=12;html=1;endArrow=ERzeroToMany;startArrow=ERzeroToMany;rounded=0;exitX=1;exitY=0.25;exitDx=0;exitDy=0;startFill=0;entryX=-0.005;entryY=0.62;entryDx=0;entryDy=0;entryPerimeter=0;labelBackgroundColor=none;strokeColor=#A8201A;fontColor=default;" parent="1" target="2vDDrUa2nhz0SJgFM6xi-14" edge="1">
          <mxGeometry width="100" height="100" relative="1" as="geometry">
            <mxPoint x="160" y="373" as="sourcePoint" />
            <mxPoint x="250" y="390" as="targetPoint" />
            <Array as="points">
              <mxPoint x="190" y="373" />
              <mxPoint x="190" y="371" />
            </Array>
          </mxGeometry>
        </mxCell>
      </root>
    </mxGraphModel>
  </diagram>
</mxfile>
